<svg width="1200" height="560" viewBox="0 0 1200 560" fill="none" xmlns="http://www.w3.org/2000/svg">
  <defs>
    <linearGradient id="bg" x1="0" y1="0" x2="1200" y2="560" gradientUnits="userSpaceOnUse">
      <stop stop-color="#EAF8DF"/>
      <stop offset="1" stop-color="#FFF4C7"/>
    </linearGradient>
  </defs>
  <rect width="1200" height="560" rx="32" fill="url(#bg)"/>
  <circle cx="150" cy="90" r="46" fill="#7BCB4A" fill-opacity="0.35"/>
  <circle cx="1040" cy="110" r="38" fill="#FFD95A" fill-opacity="0.45"/>
  <rect x="80" y="360" width="1040" height="130" rx="20" fill="#FFFFFF" fill-opacity="0.7"/>
  <ellipse cx="250" cy="330" rx="72" ry="95" fill="#8FD66A"/>
  <circle cx="250" cy="262" r="36" fill="#F6D2AE"/>
  <rect x="210" y="292" width="80" height="88" rx="24" fill="#4FA4C9"/>
  <ellipse cx="470" cy="330" rx="72" ry="95" fill="#7BCB4A"/>
  <circle cx="470" cy="262" r="36" fill="#F4CC9D"/>
  <rect x="430" y="292" width="80" height="88" rx="24" fill="#8FD66A"/>
  <ellipse cx="760" cy="330" rx="72" ry="95" fill="#F4B357"/>
  <circle cx="760" cy="262" r="36" fill="#F4CC9D"/>
  <rect x="720" y="292" width="80" height="88" rx="24" fill="#F08C3F"/>
  <ellipse cx="950" cy="330" rx="72" ry="95" fill="#4FA4C9"/>
  <circle cx="950" cy="262" r="36" fill="#F4CC9D"/>
  <rect x="910" y="292" width="80" height="88" rx="24" fill="#2C8CB6"/>
  <circle cx="1035" cy="400" r="28" fill="#7BCB4A"/>
  <circle cx="1035" cy="400" r="13" fill="#F7FAFF"/>
  <path d="M110 420C188 380 236 378 320 420" stroke="#FFD95A" stroke-width="18" stroke-linecap="round"/>
  <path d="M826 414C902 378 954 378 1030 414" stroke="#FFD95A" stroke-width="18" stroke-linecap="round"/>
  <path d="M710 392C742 356 790 354 824 392" stroke="#7BCB4A" stroke-width="15" stroke-linecap="round"/>
  <text x="90" y="95" fill="#0B375B" font-family="Arial, sans-serif" font-size="52" font-weight="700">BariBuddies Community</text>
  <text x="92" y="140" fill="#0B375B" font-family="Arial, sans-serif" font-size="26" font-weight="600">Samen sterk na maagverkleining • kiwi en banaan vibes</text>
</svg>
