<svg width="860" height="200" viewBox="0 0 860 200" fill="none" xmlns="http://www.w3.org/2000/svg" role="img" aria-labelledby="title desc">
  <title id="title">Dutch Goose WLS logo</title>
  <desc id="desc">Logo met witte gans, vitaminebollen en tekst Dutch Goose WLS Vitamine Vergelijking.</desc>
  <defs>
    <linearGradient id="bg" x1="0" y1="0" x2="860" y2="200" gradientUnits="userSpaceOnUse">
      <stop stop-color="#163B63"/>
      <stop offset="0.56" stop-color="#165B7A"/>
      <stop offset="1" stop-color="#147C78"/>
    </linearGradient>
    <linearGradient id="left" x1="0" y1="0" x2="250" y2="200" gradientUnits="userSpaceOnUse">
      <stop stop-color="#133454"/>
      <stop offset="1" stop-color="#1E5477"/>
    </linearGradient>
    <radialGradient id="glow" cx="0" cy="0" r="1" gradientUnits="userSpaceOnUse" gradientTransform="translate(128 102) rotate(90) scale(82 82)">
      <stop stop-color="#9DE8E4" stop-opacity="0.45"/>
      <stop offset="1" stop-color="#9DE8E4" stop-opacity="0"/>
    </radialGradient>
    <linearGradient id="whiteFeather" x1="88" y1="24" x2="206" y2="172" gradientUnits="userSpaceOnUse">
      <stop stop-color="#FFFFFF"/>
      <stop offset="0.5" stop-color="#EEF2F6"/>
      <stop offset="1" stop-color="#DDE4EB"/>
    </linearGradient>
    <linearGradient id="beak" x1="178" y1="58" x2="230" y2="92" gradientUnits="userSpaceOnUse">
      <stop stop-color="#F6B84E"/>
      <stop offset="1" stop-color="#D78822"/>
    </linearGradient>
    <linearGradient id="pillOrange" x1="0" y1="0" x2="1" y2="1">
      <stop stop-color="#FFDFA0"/>
      <stop offset="1" stop-color="#E9972E"/>
    </linearGradient>
    <linearGradient id="pillMint" x1="0" y1="0" x2="1" y2="1">
      <stop stop-color="#B5EFE4"/>
      <stop offset="1" stop-color="#5AAFA6"/>
    </linearGradient>
    <linearGradient id="pillPurple" x1="0" y1="0" x2="1" y2="1">
      <stop stop-color="#DDD3FF"/>
      <stop offset="1" stop-color="#7B69D1"/>
    </linearGradient>
  </defs>

  <rect x="2" y="2" width="856" height="196" rx="28" fill="url(#bg)"/>
  <rect x="2" y="2" width="856" height="196" rx="28" stroke="rgba(206,235,247,0.34)" stroke-width="2"/>
  <rect x="14" y="14" width="246" height="172" rx="22" fill="url(#left)" stroke="rgba(196,228,245,0.32)" stroke-width="2"/>
  <circle cx="128" cy="102" r="82" fill="url(#glow)"/>

  <g>
    <path d="M127 170C108 160 101 135 105 114C109 89 123 68 146 51C163 38 184 30 203 33C219 35 231 44 236 56C242 70 240 84 232 95C223 108 207 114 188 114C182 126 180 139 184 151C188 162 194 170 203 176C182 182 150 182 127 170Z" fill="#0D334F" fill-opacity="0.68"/>
    <path d="M124 168C106 157 101 134 105 114C109 89 123 67 145 49C162 35 183 28 202 31C220 33 233 43 238 56C244 70 242 85 234 96C225 109 209 116 190 116C183 129 181 144 185 157C189 166 196 173 206 178C187 186 150 183 124 168Z" fill="url(#whiteFeather)"/>
    <path d="M156 63C168 71 184 72 197 65C206 60 211 52 212 43C205 46 197 48 189 48C178 48 167 46 159 42C154 49 153 57 156 63Z" fill="#F8FBFD"/>
    <path d="M188 62C196 54 210 51 221 53C229 55 233 61 232 68C230 76 222 82 212 84C203 86 192 83 186 77C182 72 183 66 188 62Z" fill="url(#beak)"/>
    <path d="M207 71C212 68 217 67 221 68C217 72 212 74 206 75" stroke="#A05A18" stroke-width="2" stroke-linecap="round"/>
    <circle cx="178" cy="56" r="4.1" fill="#1C3043"/>
    <circle cx="177.2" cy="55.2" r="1.2" fill="#F7FDFF"/>
  </g>

  <g font-family="Manrope, Arial, sans-serif" font-weight="800" text-anchor="middle">
    <circle cx="72" cy="144" r="14" fill="url(#pillOrange)"/><text x="72" y="149" font-size="11" fill="#5A3B0A">C</text>
    <circle cx="95" cy="162" r="13" fill="url(#pillMint)"/><text x="95" y="167" font-size="10" fill="#134742">B6</text>
    <circle cx="122" cy="173" r="14" fill="url(#pillPurple)"/><text x="122" y="178" font-size="11" fill="#F3F0FF">A</text>
    <circle cx="150" cy="173" r="14" fill="url(#pillOrange)"/><text x="150" y="178" font-size="11" fill="#5A3B0A">K</text>
    <circle cx="174" cy="160" r="12" fill="url(#pillMint)"/><text x="174" y="164" font-size="9" fill="#134742">B</text>
    <circle cx="188" cy="141" r="10" fill="url(#pillOrange)"/><text x="188" y="145" font-size="8" fill="#5A3B0A">Zn</text>
    <circle cx="54" cy="159" r="10" fill="url(#pillMint)"/><text x="54" y="163" font-size="8" fill="#134742">Mg</text>
    <circle cx="206" cy="146" r="12" fill="url(#pillOrange)"/><text x="206" y="151" font-size="9" fill="#5A3B0A">C</text>
  </g>

  <g transform="translate(286 50)">
    <text x="0" y="42" fill="#F4E8CC" font-family="Cormorant Garamond, Georgia, serif" font-size="67" font-weight="700">Dutch Goose</text>
    <text x="2" y="78" fill="#F2D7AE" font-family="Manrope, Arial, sans-serif" font-size="27" font-weight="800" letter-spacing="1">WLS VITAMINE VERGELIJKING</text>
    <rect x="2" y="90" width="400" height="32" rx="10" fill="rgba(15,37,57,0.48)" stroke="rgba(222,239,249,0.34)" stroke-width="2"/>
    <text x="14" y="111" fill="#E5F2FA" font-family="Manrope, Arial, sans-serif" font-size="14" font-weight="700">Prijs per pil | Potgrootte | Waardematrix</text>
  </g>
</svg>
